Coordinates
version=1
nRows=36
nColumns=30
inDegrees=yes

Units are S.I. units (second, meters, Newtons, ...)
Angles are in degrees.

endheader
time	floatyaw	floatroll	floatpitch	floatx	floaty	floatz	pro_sup_l	deviation_l	flexion_l	cmc_flexion_l	cmc_abduction_l	mp_flexion_l	ip_flexion_l	2mcp_flexion_l	2mcp_abduction_l	2pm_flexion_l	2md_flexion_l	3mcp_flexion_l	3mcp_abduction_l	3pm_flexion_l	3md_flexion_l	4mcp_flexion_l	4mcp_abduction_l	4pm_flexion_l	4md_flexion_l	5mcp_flexion_l	5mcp_abduction_l	5pm_flexion_l	5md_flexion_l
-0.995000	-160.147433	-5.066637	-73.570646	0.081320	-0.182010	-0.015342	100.540963	4.136210	0.413911	16.891855	10.892940	-25.600287	-42.843249	27.407831	6.584737	43.364200	29.504452	23.453659	3.859398	42.961433	27.965921	12.154631	-4.219117	50.707911	34.416397	0.579045	-7.474267	58.888017	40.736052
-0.985000	-160.147433	-5.066637	-73.570646	0.081318	-0.182001	-0.015342	100.554995	4.143163	0.416574	16.887804	10.870752	-25.596697	-42.848861	27.414088	6.595875	43.368690	29.506876	23.450593	3.857301	42.989118	27.976526	12.163276	-4.216416	50.701920	34.409944	0.582297	-7.476178	58.902734	40.736091
-0.975000	-160.147433	-5.066637	-73.570646	0.081315	-0.181988	-0.015340	100.572075	4.152594	0.419397	16.888243	10.869807	-25.597604	-42.863889	27.427383	6.606310	43.362297	29.497896	23.448353	3.855884	43.011572	27.980686	12.177703	-4.214099	50.689138	34.396984	0.590272	-7.482747	58.918148	40.732583
-0.965000	-160.147433	-5.066637	-73.570646	0.081313	-0.181975	-0.015338	100.589538	4.163806	0.420852	16.890969	10.899765	-25.603828	-42.893097	27.450759	6.613343	43.348457	29.477190	23.449161	3.855493	43.025282	27.974851	12.198571	-4.212904	50.670298	34.377308	0.603750	-7.494326	58.933268	40.724685
-0.955000	-160.147433	-5.066637	-73.570646	0.081310	-0.181963	-0.015336	100.603068	4.174869	0.420057	16.891528	10.960758	-25.612893	-42.931688	27.482289	6.616186	43.334299	29.449397	23.454067	3.856069	43.029639	27.959214	12.223413	-4.213402	50.648861	34.353704	0.621196	-7.509673	58.947248	40.714019
-0.945000	-160.147433	-5.066637	-73.570646	0.081307	-0.181955	-0.015333	100.608509	4.183229	0.417698	16.885220	11.041879	-25.620377	-42.966902	27.515047	6.616152	43.326807	29.422622	23.461493	3.857318	43.027194	27.938386	12.246389	-4.215604	50.629936	34.331372	0.637878	-7.525939	58.960022	40.704663
-0.935000	-160.147433	-5.066637	-73.570646	0.081306	-0.181951	-0.015331	100.604040	4.186857	0.416072	16.869900	11.124810	-25.622739	-42.985108	27.540117	6.615551	43.328747	29.404818	23.467338	3.858949	43.022205	27.919642	12.260072	-4.218831	50.618224	34.315975	0.646846	-7.539559	58.972619	40.701650
-0.925000	-160.147433	-5.066637	-73.570646	0.081307	-0.181951	-0.015330	100.591352	4.185254	0.417955	16.847670	11.191146	-25.619773	-42.979850	27.551177	6.616177	43.336801	29.399991	23.467091	3.860807	43.018265	27.909511	12.258782	-4.222010	50.616127	34.311279	0.641800	-7.547690	58.986887	40.708616
-0.915000	-160.147433	-5.066637	-73.570646	0.081309	-0.181953	-0.015330	100.575115	4.179708	0.424852	16.824119	11.229405	-25.614861	-42.955545	27.547934	6.618438	43.343277	29.406473	23.458823	3.862842	43.016475	27.910615	12.241698	-4.224193	50.623015	34.317516	0.620508	-7.549430	59.004594	40.725752
-0.905000	-160.147433	-5.066637	-73.570646	0.081314	-0.181955	-0.015332	100.561042	4.172720	0.435820	16.805430	11.238191	-25.612584	-42.924490	27.536172	6.621509	43.340729	29.418463	23.444883	3.864934	43.015467	27.920754	12.213723	-4.224924	50.635924	34.331332	0.586736	-7.546111	59.026260	40.749211
-0.895000	-160.147433	-5.066637	-73.570646	0.081320	-0.181955	-0.015335	100.553527	4.166928	0.447774	16.795106	11.224793	-25.615276	-42.899344	27.524289	6.624175	43.326862	29.429843	23.430782	3.866736	43.013396	27.934781	12.183354	-4.224263	50.651128	34.347356	0.549226	-7.540580	59.050407	40.772481
-0.885000	-160.147433	-5.066637	-73.570646	0.081324	-0.181954	-0.015340	100.553976	4.164035	0.457204	16.792286	11.200917	-25.621089	-42.886195	27.518552	6.625693	43.306459	29.437592	23.421836	3.867718	43.010394	27.947854	12.158783	-4.222577	50.665626	34.360515	0.518007	-7.535924	59.073856	40.789135
-0.875000	-160.147433	-5.066637	-73.570646	0.081327	-0.181951	-0.015344	100.560624	4.164222	0.462150	16.792574	11.177791	-25.625178	-42.882673	27.520243	6.626224	43.288668	29.442339	23.419936	3.867445	43.009515	27.957722	12.144546	-4.220295	50.677831	34.367821	0.500075	-7.534284	59.093084	40.795488
-0.865000	-160.147433	-5.066637	-73.570646	0.081327	-0.181947	-0.015346	100.569889	4.166334	0.463070	16.790757	11.162425	-25.623277	-42.881830	27.526497	6.626693	43.281200	29.445962	23.422684	3.865931	43.015418	27.964769	12.140501	-4.217776	50.687385	34.368814	0.496920	-7.536258	59.105906	40.791774
-0.855000	-160.147433	-5.066637	-73.570646	0.081325	-0.181941	-0.015348	100.578347	4.168708	0.462128	16.783679	11.156217	-25.615068	-42.878351	27.533839	6.628143	43.285477	29.448636	23.425249	3.863764	43.031733	27.970463	12.143242	-4.215289	50.694571	34.364877	0.505049	-7.540991	59.112433	40.781423
-0.845000	-160.147433	-5.066637	-73.570646	0.081322	-0.181934	-0.015348	100.584060	4.170102	0.461615	16.771484	11.156241	-25.604757	-42.872294	27.541408	6.630972	43.296169	29.448089	23.423326	3.861874	43.058941	27.975912	12.148588	-4.213038	50.699855	34.358234	0.518637	-7.546799	59.114778	40.769144
-0.835000	-160.147433	-5.066637	-73.570646	0.081319	-0.181927	-0.015347	100.586689	4.170220	0.462730	16.756646	11.158322	-25.598356	-42.867875	27.551358	6.634619	43.305171	29.441652	23.415194	3.861011	43.094067	27.981608	12.153521	-4.211179	50.703787	34.351263	0.532405	-7.552027	59.115804	40.758976
-0.825000	-160.147433	-5.066637	-73.570646	0.081317	-0.181919	-0.015346	100.586831	4.169655	0.465400	16.741769	11.159998	-25.599633	-42.868879	27.566408	6.638027	43.306772	29.429111	23.401920	3.861276	43.132111	27.988053	12.156763	-4.209813	50.707075	34.346131	0.543286	-7.555797	59.117774	40.753138
-0.815000	-160.147433	-5.066637	-73.570646	0.081316	-0.181913	-0.015344	100.585437	4.169419	0.468928	16.727833	11.161557	-25.607705	-42.874632	27.586726	6.640544	43.300433	29.413821	23.386186	3.862053	43.167963	27.996085	12.158243	-4.208984	50.710476	34.344399	0.550507	-7.558270	59.121654	40.751885
-0.805000	-160.147433	-5.066637	-73.570646	0.081317	-0.181908	-0.015340	100.583638	4.170425	0.472768	16.714006	11.164807	-25.617877	-42.879579	27.608535	6.642478	43.290079	29.401337	23.370792	3.862456	43.197493	28.006270	12.158232	-4.208663	50.714337	34.346510	0.554617	-7.560266	59.127226	40.754054
-0.795000	-160.147433	-5.066637	-73.570646	0.081318	-0.181904	-0.015335	100.582729	4.173160	0.476853	16.698864	11.170879	-25.624902	-42.876474	27.625336	6.644738	43.281506	29.396873	23.357643	3.862045	43.217647	28.017947	12.156776	-4.208738	50.718103	34.351521	0.556355	-7.562508	59.133669	40.757871
-0.785000	-160.147433	-5.066637	-73.570646	0.081321	-0.181899	-0.015330	100.583934	4.177699	0.481417	16.681887	11.178836	-25.626295	-42.860750	27.630836	6.647813	43.279964	29.403363	23.347388	3.861244	43.226313	28.029030	12.153560	-4.209050	50.720338	34.357495	0.555945	-7.565058	59.140125	40.761699
-0.775000	-160.147433	-5.066637	-73.570646	0.081324	-0.181895	-0.015326	100.587895	4.183882	0.486692	16.664093	11.185927	-25.623656	-42.833170	27.621809	6.650987	43.288651	29.420836	23.339498	3.861069	43.222684	28.037028	12.147928	-4.209476	50.719560	34.362592	0.552862	-7.567318	59.146043	40.764634
-0.765000	-160.147433	-5.066637	-73.570646	0.081328	-0.181890	-0.015323	100.594172	4.191380	0.492791	16.647457	11.189031	-25.621536	-42.799422	27.599481	6.652617	43.307795	29.446731	23.332585	3.862337	43.208028	28.040663	12.138934	-4.210025	50.715467	34.366263	0.545910	-7.568538	59.151376	40.766884
-0.755000	-160.147433	-5.066637	-73.570646	0.081332	-0.181887	-0.015321	100.601142	4.199517	0.499662	16.633612	11.186214	-25.624827	-42.767379	27.569200	6.651417	43.334195	29.476591	23.324999	3.865000	43.186173	28.040915	12.125763	-4.210832	50.709614	34.369676	0.533772	-7.568437	59.156615	40.769711
-0.745000	-160.147433	-5.066637	-73.570646	0.081335	-0.181886	-0.015321	100.606413	4.207060	0.506887	16.622640	11.177539	-25.636342	-42.743983	27.538997	6.647703	43.361726	29.504965	23.315670	3.868137	43.163052	28.040698	12.108690	-4.211983	50.704790	34.374902	0.516120	-7.567508	59.162521	40.774714
-0.735000	-160.147433	-5.066637	-73.570646	0.081336	-0.181887	-0.015322	100.607491	4.212278	0.513503	16.612615	11.164903	-25.655771	-42.733203	27.517483	6.643485	43.383223	29.526656	23.304725	3.870557	43.145138	28.043336	12.089882	-4.213329	50.703346	34.383375	0.494575	-7.566725	59.169471	40.782703
-0.725000	-160.147433	-5.066637	-73.570646	0.081336	-0.181891	-0.015325	100.602492	4.213493	0.518311	16.600155	11.151207	-25.680047	-42.735115	27.511229	6.641224	43.393250	29.538367	23.293247	3.871504	43.137327	28.050888	12.072970	-4.214454	50.705666	34.394812	0.472492	-7.566821	59.176740	40.792945
-0.715000	-160.147433	-5.066637	-73.570646	0.081335	-0.181897	-0.015328	100.590920	4.209977	0.520715	16.581865	11.139421	-25.704347	-42.745601	27.522159	6.642215	43.390499	29.540209	23.282229	3.870985	43.141314	28.063421	12.061245	-4.214898	50.709903	34.407396	0.453497	-7.567655	59.182275	40.803413
-0.705000	-160.147433	-5.066637	-73.570646	0.081333	-0.181903	-0.015331	100.574532	4.202747	0.521456	16.556120	11.131798	-25.723210	-42.756944	27.546291	6.645836	43.378480	29.536039	23.271725	3.869638	43.155139	28.079381	12.055793	-4.214434	50.713059	34.418882	0.439918	-7.568173	59.183295	40.811822
-0.695000	-160.147433	-5.066637	-73.570646	0.081332	-0.181907	-0.015333	100.557823	4.194685	0.522454	16.524389	11.129216	-25.731869	-42.760187	27.575112	6.650145	43.364008	29.531870	23.261175	3.868322	43.173925	28.096284	12.055165	-4.213202	50.712531	34.427530	0.432418	-7.567063	59.177489	40.816573
-0.685000	-160.147433	-5.066637	-73.570646	0.081333	-0.181905	-0.015333	100.547403	4.189745	0.525644	16.491332	11.130864	-25.727965	-42.749266	27.599468	6.653252	43.354167	29.532763	23.250718	3.867727	43.191435	28.111085	12.056978	-4.211624	50.707166	34.432175	0.431045	-7.563693	59.164162	40.816896
-0.675000	-160.147433	-5.066637	-73.570646	0.081337	-0.181896	-0.015331	100.549955	4.191485	0.531490	16.463391	11.134598	-25.713033	-42.725014	27.614051	6.654451	43.353294	29.539923	23.242234	3.868180	43.202101	28.120391	12.060179	-4.210230	50.697523	34.431850	0.436649	-7.558709	59.144708	40.812364
-0.665000	-160.147433	-5.066637	-73.570646	0.081343	-0.181879	-0.015327	100.569462	4.201590	0.538288	16.446291	11.137948	-25.692629	-42.696103	27.619754	6.654401	43.361492	29.549956	23.238895	3.869666	43.202994	28.121195	12.066039	-4.209509	50.685599	34.425815	0.451118	-7.553838	59.122274	40.802579
-0.655000	-160.147433	-5.066637	-73.570646	0.081350	-0.181859	-0.015323	100.605079	4.219057	0.542965	16.442484	11.139221	-25.674404	-42.675323	27.622223	6.654479	43.375308	29.557003	23.243137	3.871961	43.194959	28.112266	12.076841	-4.209792	50.674317	34.414328	0.475719	-7.550959	59.100886	40.787694
-0.645000	-160.147433	-5.066637	-73.570646	0.081357	-0.181838	-0.015321	100.650860	4.240459	0.543115	16.449735	11.138115	-25.664761	-42.672661	27.627558	6.655846	43.389906	29.556465	23.254401	3.874769	43.182141	28.095380	12.093100	-4.211157	50.666794	34.399514	0.508465	-7.551009	59.084423	40.769424
